<svg width="16" height="16" viewBox="0 0 16 16" fill="none" xmlns="http://www.w3.org/2000/svg">
<path fill-rule="evenodd" clip-rule="evenodd" d="M6.20005 2.60005C4.21182 2.60005 2.60005 4.21182 2.60005 6.20005C2.60005 8.18827 4.21182 9.80005 6.20005 9.80005C8.18827 9.80005 9.80005 8.18827 9.80005 6.20005C9.80005 4.21182 8.18827 2.60005 6.20005 2.60005ZM0.800049 6.20005C0.800049 3.21771 3.21771 0.800049 6.20005 0.800049C9.18239 0.800049 11.6 3.21771 11.6 6.20005C11.6 7.3663 11.2303 8.44619 10.6017 9.32893L14.9364 13.6637C15.2879 14.0151 15.2879 14.585 14.9364 14.9364C14.585 15.2879 14.0151 15.2879 13.6637 14.9364L9.32893 10.6017C8.44619 11.2303 7.3663 11.6 6.20005 11.6C3.21771 11.6 0.800049 9.18239 0.800049 6.20005Z" fill="white"/>
</svg>
