<svg width="26" height="26" viewBox="0 0 26 26" fill="none" xmlns="http://www.w3.org/2000/svg">
<path fill-rule="evenodd" clip-rule="evenodd" d="M15.3828 2.07352C14.7763 -0.424489 11.2237 -0.424491 10.6172 2.07352C10.2255 3.6872 8.37672 4.45299 6.95866 3.58895C4.76349 2.25141 2.2514 4.7635 3.58894 6.95867C4.45298 8.37673 3.68719 10.2255 2.07351 10.6173C-0.424502 11.2237 -0.424501 14.7763 2.07351 15.3828C3.68719 15.7745 4.45298 17.6233 3.58894 19.0413C2.2514 21.2365 4.76349 23.7486 6.95866 22.4111C8.37672 21.547 10.2255 22.3128 10.6172 23.9265C11.2237 26.4245 14.7763 26.4245 15.3828 23.9265C15.7745 22.3128 17.6233 21.547 19.0413 22.4111C21.2365 23.7486 23.7486 21.2365 22.4111 19.0413C21.547 17.6233 22.3128 15.7745 23.9265 15.3828C26.4245 14.7763 26.4245 11.2237 23.9265 10.6173C22.3128 10.2255 21.547 8.37673 22.4111 6.95867C23.7486 4.7635 21.2365 2.25141 19.0413 3.58895C17.6233 4.45299 15.7745 3.6872 15.3828 2.07352ZM13 17.8C15.651 17.8 17.8 15.651 17.8 13C17.8 10.349 15.651 8.20001 13 8.20001C10.349 8.20001 8.2 10.349 8.2 13C8.2 15.651 10.349 17.8 13 17.8Z" fill="#CBCFD5"/>
</svg>
