<svg width="26" height="26" viewBox="0 0 26 26" fill="none" xmlns="http://www.w3.org/2000/svg">
<path fill-rule="evenodd" clip-rule="evenodd" d="M25.7999 13C25.7999 20.0693 20.0692 25.8 13 25.8C5.93071 25.8 0.199951 20.0693 0.199951 13C0.199951 5.93077 5.93071 0.200012 13 0.200012C20.0692 0.200012 25.7999 5.93077 25.7999 13ZM13 8.20001C12.4098 8.20001 11.8921 8.51876 11.613 9.00117C11.1706 9.76607 10.1918 10.0274 9.42691 9.58498C8.66202 9.14251 8.40064 8.16375 8.84311 7.39885C9.67063 5.9683 11.2213 5.00001 13 5.00001C15.6509 5.00001 17.8 7.14904 17.8 9.80001C17.8 11.89 16.4643 13.6679 14.6 14.3269V14.6C14.6 15.4837 13.8836 16.2 13 16.2C12.1163 16.2 11.4 15.4837 11.4 14.6V13C11.4 12.1164 12.1163 11.4 13 11.4C13.8836 11.4 14.6 10.6837 14.6 9.80001C14.6 8.91636 13.8836 8.20001 13 8.20001ZM13 21C13.8836 21 14.6 20.2837 14.6 19.4C14.6 18.5164 13.8836 17.8 13 17.8C12.1163 17.8 11.4 18.5164 11.4 19.4C11.4 20.2837 12.1163 21 13 21Z" fill="#64748B"/>
</svg>
