<svg width="24" height="24" viewBox="0 0 24 24" fill="none" xmlns="http://www.w3.org/2000/svg">
<path fill-rule="evenodd" clip-rule="evenodd" d="M0.799988 2.39999C0.799988 1.51633 1.51633 0.799988 2.39999 0.799988H8.79999C9.68364 0.799988 10.4 1.51633 10.4 2.39999C10.4 3.28364 9.68364 3.99999 8.79999 3.99999H6.26273L9.93136 7.66862C10.5562 8.29346 10.5562 9.30652 9.93136 9.93136C9.30652 10.5562 8.29346 10.5562 7.66862 9.93136L3.99999 6.26273V8.79999C3.99999 9.68364 3.28364 10.4 2.39999 10.4C1.51633 10.4 0.799988 9.68364 0.799988 8.79999V2.39999ZM15.2 3.99999C14.3163 3.99999 13.6 3.28364 13.6 2.39999C13.6 1.51633 14.3163 0.799988 15.2 0.799988H21.6C22.4836 0.799988 23.2 1.51633 23.2 2.39999V8.79999C23.2 9.68364 22.4836 10.4 21.6 10.4C20.7163 10.4 20 9.68364 20 8.79999V6.26273L16.3314 9.93136C15.7065 10.5562 14.6935 10.5562 14.0686 9.93136C13.4438 9.30652 13.4438 8.29346 14.0686 7.66862L17.7372 3.99999H15.2ZM0.799988 15.2C0.799988 14.3163 1.51633 13.6 2.39999 13.6C3.28364 13.6 3.99999 14.3163 3.99999 15.2V17.7372L7.66862 14.0686C8.29346 13.4438 9.30652 13.4438 9.93136 14.0686C10.5562 14.6935 10.5562 15.7065 9.93136 16.3314L6.26273 20H8.79999C9.68364 20 10.4 20.7163 10.4 21.6C10.4 22.4836 9.68364 23.2 8.79999 23.2H2.39999C1.51633 23.2 0.799988 22.4836 0.799988 21.6V15.2ZM21.6 13.6C22.4836 13.6 23.2 14.3163 23.2 15.2V21.6C23.2 22.4836 22.4836 23.2 21.6 23.2H15.2C14.3163 23.2 13.6 22.4836 13.6 21.6C13.6 20.7163 14.3163 20 15.2 20H17.7372L14.0686 16.3314C13.4438 15.7065 13.4438 14.6935 14.0686 14.0686C14.6935 13.4438 15.7065 13.4438 16.3314 14.0686L20 17.7372V15.2C20 14.3163 20.7163 13.6 21.6 13.6Z" fill="#64748B"/>
</svg>
