<svg width="14" height="12" viewBox="0 0 14 12" fill="none" xmlns="http://www.w3.org/2000/svg">
<path fill-rule="evenodd" clip-rule="evenodd" d="M2.59499 0.60505C2.32162 0.331683 1.8784 0.331683 1.60504 0.60505C1.33167 0.878417 1.33167 1.32163 1.60504 1.595L11.405 11.395C11.6784 11.6684 12.1216 11.6684 12.395 11.395C12.6684 11.1216 12.6684 10.6784 12.395 10.4051L11.3638 9.37383C12.44 8.51471 13.2573 7.3448 13.6797 6C12.7877 3.16004 10.1345 1.10002 7.00016 1.10002C5.86366 1.10002 4.79042 1.37087 3.84146 1.85153L2.59499 0.60505ZM5.5777 3.58776L6.63742 4.64748C6.75312 4.61653 6.87473 4.60002 7.00019 4.60002C7.77339 4.60002 8.40019 5.22683 8.40019 6.00002C8.40019 6.12549 8.38369 6.24709 8.35273 6.36279L9.41245 7.42251C9.65881 7.00563 9.80019 6.51934 9.80019 6.00002C9.80019 4.45363 8.54659 3.20002 7.00019 3.20002C6.48088 3.20002 5.99459 3.3414 5.5777 3.58776Z" fill="#64748B"/>
<path d="M8.71787 10.6877L6.82477 8.79462C5.4181 8.70766 4.29255 7.58211 4.2056 6.17544L1.63446 3.60431C1.05045 4.30059 0.59947 5.11221 0.320618 6.00005C1.21261 8.84001 3.86581 10.9 7.00015 10.9C7.59281 10.9 8.16827 10.8264 8.71787 10.6877Z" fill="#64748B"/>
</svg>
