<svg width="28" height="17" viewBox="0 0 28 17" fill="none" xmlns="http://www.w3.org/2000/svg">
<path fill-rule="evenodd" clip-rule="evenodd" d="M14 14.981C12.5176 16.2403 10.5975 17 8.5 17C3.80558 17 0 13.1944 0 8.5C0 3.80558 3.80558 0 8.5 0C10.5975 0 12.5176 0.759735 14 2.01903C15.4824 0.759735 17.4025 0 19.5 0C24.1944 0 28 3.80558 28 8.5C28 13.1944 24.1944 17 19.5 17C17.4025 17 15.4824 16.2403 14 14.981Z" fill="#ED0006"/>
<path fill-rule="evenodd" clip-rule="evenodd" d="M14.0002 14.9814C15.8359 13.4223 17.0007 11.0972 17.0007 8.5C17.0007 5.90284 15.8359 3.57774 14.0002 2.0186C15.4826 0.759561 17.4024 0 19.4997 0C24.1941 0 27.9997 3.80558 27.9997 8.5C27.9997 13.1944 24.1941 17 19.4997 17C17.4024 17 15.4826 16.2404 14.0002 14.9814Z" fill="#F9A000"/>
<path fill-rule="evenodd" clip-rule="evenodd" d="M14 14.981C15.8354 13.4218 17 11.0969 17 8.50001C17 5.90309 15.8354 3.57818 14 2.01904C12.1646 3.57818 11 5.90309 11 8.50001C11 11.0969 12.1646 13.4218 14 14.981Z" fill="#FF5E00"/>
</svg>
