<svg width="20" height="20" viewBox="0 0 20 20" fill="none" xmlns="http://www.w3.org/2000/svg">
<path fill-rule="evenodd" clip-rule="evenodd" d="M19.6 9.9999C19.6 15.3018 15.3019 19.5999 9.99999 19.5999C4.69806 19.5999 0.399994 15.3018 0.399994 9.9999C0.399994 4.69797 4.69806 0.399902 9.99999 0.399902C15.3019 0.399902 19.6 4.69797 19.6 9.9999ZM11.2 5.1999C11.2 5.86264 10.6627 6.3999 9.99999 6.3999C9.33725 6.3999 8.79999 5.86264 8.79999 5.1999C8.79999 4.53716 9.33725 3.9999 9.99999 3.9999C10.6627 3.9999 11.2 4.53716 11.2 5.1999ZM8.79999 8.7999C8.13725 8.7999 7.59999 9.33716 7.59999 9.9999C7.59999 10.6626 8.13725 11.1999 8.79999 11.1999V14.7999C8.79999 15.4626 9.33725 15.9999 9.99999 15.9999H11.2C11.8627 15.9999 12.4 15.4626 12.4 14.7999C12.4 14.1372 11.8627 13.5999 11.2 13.5999V9.9999C11.2 9.33716 10.6627 8.7999 9.99999 8.7999H8.79999Z" fill="#4F46E5"/>
</svg>
